<?xml version="1.0" encoding="utf-8"?>
<!-- Generator: Adobe Illustrator 15.0.0, SVG Export Plug-In  -->
<!DOCTYPE svg PUBLIC "-//W3C//DTD SVG 1.1//EN" "http://www.w3.org/Graphics/SVG/1.1/DTD/svg11.dtd" [
	<!ENTITY ns_flows "http://ns.adobe.com/Flows/1.0/">
]>
<svg version="1.1"
	 xmlns="http://www.w3.org/2000/svg" xmlns:xlink="http://www.w3.org/1999/xlink" xmlns:a="http://ns.adobe.com/AdobeSVGViewerExtensions/3.0/"
	 x="0px" y="0px" width="366px" height="101px" viewBox="-21.7 -9.188 366 101" enable-background="new -21.7 -9.188 366 101"
	 xml:space="preserve">
<defs>
</defs>
<g>
	<g>
		<path fill="#164194" d="M0,0h35.671v9.927h-24.87v24.108h24.87v9.926h-24.87v36.764H0V0z"/>
		<path fill="#164194" d="M47.89,0h9.596v80.726H47.89V0z"/>
		<path fill="#164194" d="M79.847,53.781c0,10.361,4.038,19.307,12.983,19.307c6.104,0,10.142-4.146,11.455-10.473h9.489
			c-1.087,6.874-4.034,11.892-7.854,15.054c-3.817,3.057-8.507,4.364-13.089,4.364c-16.366,0-23.125-15.273-23.125-31.307
			c0-18.328,8.291-31.527,22.909-31.527c7.412,0,12.979,3.164,16.579,8.836c4.69,7.309,5.346,16.908,5.125,25.746H79.847z
			 M104.718,45.488c-0.217-9.599-3.819-18.218-12.219-18.218c-7.524,0-12.432,7.31-12.653,18.218H104.718z"/>
		<path fill="#164194" d="M133.957,49.853l-15.492-29.344h11.018l10.251,22.035l10.363-22.035h10.909l-15.488,29.344l16.688,30.873
			h-11.233l-11.239-23.455l-11.127,23.455h-11.233L133.957,49.853z"/>
		<path fill="#B11280" d="M207.474,80.726h-8.837v-9.602c-2.618,7.093-7.525,10.909-14.506,10.909
			c-11.566,0-19.747-11.563-19.747-31.307c0-19.201,7.312-31.527,19.747-31.527c6.104,0,11.78,2.837,14.506,11.236v-9.927h8.837
			V80.726z M173.985,50.727c0,13.525,4.253,21.815,11.998,21.815c4.147,0,6.877-1.961,8.945-5.344
			c2.292-3.492,2.944-8.183,2.944-16.581c0-8.401-0.652-13.091-2.944-16.582c-2.068-3.273-4.798-5.345-8.945-5.345
			c-7.745,0-11.998,8.399-11.998,21.927V50.727z"/>
		<path fill="#B11280" d="M221.215,20.508h8.84c0,4.691,0,7.854-0.111,11.126c2.729-10.362,9.601-12.326,15.821-12.436v11.454
			c-1.309-0.872-2.621-1.09-3.929-1.09c-5.129,0-11.017,5.672-11.017,17.998v33.165h-9.604V20.508z"/>
		<path fill="#B11280" d="M256.345,29.563h-7.638v-9.055h7.638V3.927h9.708v16.581h7.633v9.055h-7.633v51.162h-9.708V29.563z"/>
		<path fill="#B11280" d="M283.287,0h9.599v11.126h-9.599V0z M283.287,20.508h9.599v60.217h-9.599V20.508z"/>
		<path fill="#B11280" d="M308.917,0h9.603v80.726h-9.603V0z"/>
	</g>
</g>
<path fill="#B11280" d="M329.565,0c2.84,0,5.136,2.299,5.136,5.138c0,2.84-2.296,5.139-5.136,5.139
	c-2.842,0-5.142-2.298-5.142-5.139C324.423,2.299,326.723,0,329.565,0z M329.565,8.81c2.064,0,3.587-1.662,3.587-3.671
	c0-2.008-1.522-3.669-3.587-3.669s-3.589,1.661-3.589,3.669C325.976,7.148,327.5,8.81,329.565,8.81z M327.553,2.369h2.163
	c1.441,0,2.132,0.623,2.132,1.719c0,0.913-0.606,1.438-1.371,1.536l1.371,2.285h-1.329l-1.302-2.229h-0.444v2.229h-1.22V2.369z
	 M328.773,4.71h0.929c0.539,0,0.932-0.098,0.932-0.692c0-0.609-0.599-0.679-1.054-0.679h-0.807V4.71z"/>
</svg>
